<?xml version="1.0" encoding="UTF-8"?>
<svg id="Layer_1" data-name="Layer 1" xmlns="http://www.w3.org/2000/svg" viewBox="0 0 32 32">
  <defs>
    <style>
      .cls-1 {
        fill: red;
      }
    </style>
  </defs>
  <path class="cls-1" d="M22.36,13.97c14.05,3.85,7.03,6.31-2.2,3.93.67,4.36,2.08,9.38-.84,12.67-3.81-2.56-2.11-6.6-4.64-9.53-.86,1.61-8.44,7.44-10.03,6.01-1.23-5.97,5.76-6.75,7.97-11.09L.65,11.65c2.3-4.29,7.44-2.28,11.98-1.59.55-.57-2.39-7.7-.11-8.68,2.85-1.86,4.93,8.54,5.44,8.63,2.21-.72,7.42-7.85,10.43-3.52,1.69,2.44-5.5,5.2-6.03,7.48Z"/>
</svg>